# xmcd
#
# Track frame offsets: 
#        150
#        13087
#        26362
#        38512
#        51712
#        66337
#        79912
#        93487
#        108112
#        120862
#        134287
#        147937
#        161962
#        174562
#        187312
#        200437
#        214237
#        226912
#        237937
#        250312
#        263137
#        275587
#        288862
#        300037
#
# Disc length: 4168 seconds
#
# Revision: 1
# Processed by: cddbd v1.5.2PL0 Copyright (c) Steve Scherf et al.
# Submitted via: ExactAudioCopy v1.0b1
#
DISCID=57104618
DTITLE=Eddie 'Cleanhead' Vinson - Blues, Boogie, and Bop - The 1940s Mer
DTITLE=cury Sessions - Disc 4 of 7
DYEAR=1995
DGENRE=Blues
TTITLE0=Cherry Red Blues (mono)
TTITLE1=Somebody's Gotta Go (mono)
TTITLE2=Too Many Women Blues (mono)
TTITLE3=Just A Dream (mono)
TTITLE4=Mr. Cleanhead Steps Out (mono)
TTITLE5=It's A Groovy Affair (mono)
TTITLE6=I've Been So Good (mono)
TTITLE7=Juice Head Baby (mono)
TTITLE8=Cleanhead Blues (mono)
TTITLE9=When A Woman Loves Her Juice (mono)
TTITLE10=Kidney Stew Blues (mono)
TTITLE11=King For A Day Blues (mono)
TTITLE12=Old Maid Boogie (mono)
TTITLE13=Lazy Gal (mono)
TTITLE14=Bonus Pay (mono)
TTITLE15=Luxury Tax Blues (mono)
TTITLE16=Railroad Porter's Blues (mono)
TTITLE17=Gonna Send You Back Where I Got You From (mono)
TTITLE18=When I Get Drunk (mono)
TTITLE19=Oil Man Blues (mono)
TTITLE20=Ever-Ready Blues (mono)
TTITLE21=Wrong Girl Blues (mono)
TTITLE22=Wandering Mind Blues (mono)
TTITLE23=Have You Ever Missed Your Baby (mono)
EXTD=
EXTT0=
EXTT1=
EXTT2=
EXTT3=
EXTT4=
EXTT5=
EXTT6=
EXTT7=
EXTT8=
EXTT9=
EXTT10=
EXTT11=
EXTT12=
EXTT13=
EXTT14=
EXTT15=
EXTT16=
EXTT17=
EXTT18=
EXTT19=
EXTT20=
EXTT21=
EXTT22=
EXTT23=
PLAYORDER=
